# xmcd
#
# Track frame offsets:
#	150
#	17652
#	38155
#	69970
#
# Disc length: 1184 seconds
#
# Revision: 0
# Processed by: cddbd v1.5.1PL2 Copyright (c) Steve Scherf et al.
# Submitted via: dBpowerAMP V4.0
#
DISCID=27049e04
DTITLE=Levert, Sweat, Gill - My Body
DYEAR=1998
DGENRE=R&B
TTITLE0=My Body (Radio Edit)
TTITLE1=My Body (Remix feat Missy Elliot)
TTITLE2=My Body (LSG Remix)
TTITLE3=My Body (Instrumental)
EXTD=
EXTT0=
EXTT1=
EXTT2=
EXTT3=
PLAYORDER=
